<svg id="Layer_3" enable-background="new 0 0 64 64" height="512" viewBox="0 0 64 64" width="512" xmlns="http://www.w3.org/2000/svg"><g><path d="m55 62h-34c-3.314 0-6-2.686-6-6 0-3.314 2.686-6 6-6h34c3.314 0 6 2.686 6 6 0 3.314-2.686 6-6 6z" fill="#534f44"/><path d="m27 46h22v4h-22z" fill="#625d51"/><path d="m44 46h-22c-1.105 0-2-.895-2-2 0-1.105.895-2 2-2h22z" fill="#7f786b"/><path d="m44 42h-22v-12c0-5.523 4.477-10 10-10h10c1.105 0 2 .895 2 2z" fill="#f2c351"/><path d="m5 39 7-28-2.368-7.103c-.377-1.133-1.438-1.897-2.632-1.897-1.194 0-2.255.764-2.632 1.897l-2.368 7.103v28" fill="#f2c351"/><path d="m6 35-1 4h-3v-4z" fill="#9e968d"/><path d="m11.794 11.825.206-.825-2-6 18.422 9.211c2.193 1.096 3.578 3.338 3.578 5.789-2.761 0-5.261 1.119-7.071 2.929l.071.071z" fill="#f7d881"/><path d="m22 39h14c1.105 0 2-.895 2-2v-12c0-1.105-.895-2-2-2h-11l-.071-.071c-1.81 1.81-2.929 4.31-2.929 7.071z" fill="#c7e2fc"/><g><path d="m33 50h2v3h-2z" fill="#7f786b"/></g><g><path d="m29 50h2v3h-2z" fill="#7f786b"/></g><g><path d="m25 50h2v3h-2z" fill="#7f786b"/></g><g><path d="m45 50h2v3h-2z" fill="#7f786b"/></g><g><path d="m41 50h2v3h-2z" fill="#7f786b"/></g><g><path d="m53 50h2v3h-2z" fill="#7f786b"/></g><g><path d="m37 50h2v3h-2z" fill="#7f786b"/></g><g><path d="m21 50h2v3h-2z" fill="#7f786b"/></g><g><path d="m33 59h2v3h-2z" fill="#7f786b"/></g><g><path d="m29 59h2v3h-2z" fill="#7f786b"/></g><g><path d="m25 59h2v3h-2z" fill="#7f786b"/></g><g><path d="m45 59h2v3h-2z" fill="#7f786b"/></g><g><path d="m41 59h2v3h-2z" fill="#7f786b"/></g><g><path d="m37 59h2v3h-2z" fill="#7f786b"/></g><g><path d="m21 59h2v3h-2z" fill="#7f786b"/></g><g fill="#7f786b"><path d="m59.887 59.473-2.475-2.475-1.415 1.415 2.475 2.475c.548-.39 1.026-.868 1.415-1.415z"/><path d="m57.646 56.999h3.265c.054-.326.089-.658.089-.999 0-.342-.035-.674-.09-1h-3.264z"/><path d="m58.472 51.112-2.623 2.623 1.415 1.415 2.624-2.624c-.391-.546-.869-1.024-1.416-1.414z"/><path d="m16.112 59.472c.389.547.867 1.025 1.414 1.415l2.566-2.566-1.415-1.415z"/><path d="m15 56c0 .341.035.673.09.999h3.91v-2h-3.91c-.055.327-.09.659-.09 1.001z"/><path d="m16.113 52.527 2.565 2.565 1.415-1.415-2.565-2.565c-.548.39-1.026.868-1.415 1.415z"/></g><path d="m60 46h-16v-10h13c2.761 0 5 2.239 5 5v3c0 1.105-.895 2-2 2z" fill="#f2c351"/><path d="m60 46h-16v-10h13c2.761 0 5 2.239 5 5v3c0 1.105-.895 2-2 2z" fill="#f2c351"/><g><path d="m46 39h2v4h-2z" fill="#7f786b"/></g><g><path d="m49 39h2v4h-2z" fill="#7f786b"/></g><g><path d="m52 39h2v4h-2z" fill="#7f786b"/></g><path d="m48 36v-4h8v4" fill="#f7d881"/><path d="m49 32v-2c0-2.209 1.791-4 4-4h2v3h-2c-.552 0-1 .448-1 1v2" fill="#cbc3b6"/><g><path d="m53 59h2v3h-2z" fill="#7f786b"/></g><g><path d="m49 50h2v3h-2z" fill="#7f786b"/></g><g><path d="m49 59h2v3h-2z" fill="#7f786b"/></g><path d="m2 39h3l2 2 4-1v-1.882c0-.685.387-1.312 1-1.618.613-.306 1-.933 1-1.618v-.882l2-2 1 2v7.172c0 .53-.211 1.039-.586 1.414l-4.124 4.124c-.826.826-1.946 1.29-3.115 1.29-1.896 0-3.58-1.213-4.179-3.012z" fill="#7f786b"/><g><path d="m6.5 7.999c-.827 0-1.5-.673-1.5-1.499 0-.828.673-1.5 1.5-1.5s1.5.672 1.5 1.5c0 .826-.673 1.499-1.5 1.499zm0-1.999c-.276 0-.5.224-.5.5 0 .275.224.5.5.5.275 0 .5-.224.5-.5s-.225-.5-.5-.5z" fill="#534f44"/></g><g><path d="m27.5 18.999c-.827 0-1.5-.673-1.5-1.5s.673-1.5 1.5-1.5 1.5.673 1.5 1.5-.673 1.5-1.5 1.5zm0-1.999c-.276 0-.5.224-.5.5 0 .275.224.5.5.5.275 0 .5-.224.5-.5s-.225-.5-.5-.5z" fill="#534f44"/></g><path d="m30.781 16.219 2.219-2.219-1-4-4-2-1 2h-3l-.8 1.6 5.222 2.611c.956.478 1.758 1.173 2.359 2.008z" fill="#f2c351"/><path d="m55 59h-34c-1.657 0-3-1.343-3-3 0-1.657 1.343-3 3-3h34c1.657 0 3 1.343 3 3 0 1.657-1.343 3-3 3z" fill="#fff"/><g><path d="m21 55h4v2h-4z" fill="#7f786b"/></g><g><path d="m27 55h6v2h-6z" fill="#7f786b"/></g><g><path d="m35 55h6v2h-6z" fill="#7f786b"/></g><g><path d="m43 55h6v2h-6z" fill="#7f786b"/></g><g><path d="m51 55h4v2h-4z" fill="#7f786b"/></g><g><path d="m26 57.999c-1.103 0-2-.897-2-2s.897-2 2-2 2 .897 2 2-.897 2-2 2zm0-2.001v.002z" fill="#625d51"/></g><g><path d="m34 57.999c-1.103 0-2-.897-2-2s.897-2 2-2 2 .897 2 2-.897 2-2 2zm0-2.001v.002z" fill="#625d51"/></g><g><path d="m42 57.999c-1.103 0-2-.897-2-2s.897-2 2-2 2 .897 2 2-.897 2-2 2zm0-2.001v.002z" fill="#625d51"/></g><g><path d="m50 57.999c-1.103 0-2-.897-2-2s.897-2 2-2 2 .897 2 2-.897 2-2 2zm0-2.001v.002z" fill="#625d51"/></g><path d="m24.929 22.929c-1.81 1.81-2.929 4.31-2.929 7.071v9h5.313c4.434-1.898 7.541-6.299 7.541-11.427 0-1.616-.318-3.156-.88-4.573h-8.974z" fill="#ebf7fe"/><g><path d="m57 35-.001-3c0-.553-.447-1-1-1h-3v-1h2c.553 0 1-.447 1-1v-3c0-.553-.447-1-1-1h-2c-2.757 0-5 2.243-5 5v1c-.553 0-1 .447-1 1v3h-2v-13c0-1.654-1.346-3-3-3h-9.069c-.125-.94-.434-1.826-.883-2.633l1.66-1.66c.248-.249.348-.609.263-.95l-1-4c-.071-.283-.262-.521-.523-.652l-4-2c-.057-.029-.118-.031-.178-.048l.006-.019-19.441-5.554c-.549-.307-1.175-.484-1.835-.484-1.627 0-3.066 1.037-3.581 2.581l-2.367 7.103c-.034.101-.051.208-.051.316v28h.006c0 .106.011.213.045.316l1.996 5.988c.737 2.21 2.797 3.696 5.127 3.696 1.444 0 2.801-.562 3.823-1.583l4.124-4.124c.566-.566.878-1.32.878-2.121l.001-7.172c0-.155-.036-.309-.105-.447l-1-2c-.144-.288-.417-.489-.734-.54-.317-.048-.64.053-.868.28l-2 2c-.188.186-.293.441-.293.707v.882c0 .309-.171.586-.447.724-.958.477-1.553 1.44-1.553 2.511v1.101l-2.693.673-1.2-1.2 6.267-25.066 11.12 9.409c-1.558 1.899-2.494 4.325-2.494 6.966v11.184c-1.161.414-2 1.514-2 2.816 0 1.654 1.346 2.999 3 2.999h4v2h-5.001c-3.859.001-6.999 3.141-6.999 7.001 0 3.859 3.14 6.999 6.999 6.999h34c3.86 0 7-3.14 7-7s-3.14-7-7-7h-5v-2h10c1.654 0 3-1.346 3-3l.001-2.999c0-3.309-2.692-6-6-6zm1.433 23.018c.186-.316.33-.656.425-1.019h1.04c-.13.637-.384 1.228-.732 1.753zm.425-3.018c-.094-.363-.238-.704-.425-1.019l.733-.733c.348.524.602 1.116.732 1.753h-1.04zm-1.858 1c0 1.102-.897 1.999-2 1.999h-5-8-8-8-5c-1.103 0-2-.897-2-2s.897-2 2-2h5 8 8 8 5c1.103.001 2 .897 2 2.001zm-32 3.999v1h-2v-1zm2 0h2v1h-2zm4 0h2v1h-2zm3.999 0h2.001v1h-2.001zm4.001 0h2v1h-2zm4 0h2v1h-2zm3.999 0h2v1h-2zm4 0h2.001v1h-2.001zm-33.433-6.019c-.186.316-.33.656-.425 1.019h-1.041c.13-.637.384-1.228.732-1.753zm-.425 3.019c.094.363.238.704.425 1.019l-.733.733c-.348-.524-.602-1.116-.732-1.753h1.04zm25.859-4.999v-1h2v1zm-12 0v-1h2v1zm3.999-1h2.001v1h-2.001zm4.001 0h2v1h-2zm-10 0v1h-2v-1zm-4 1h-2v-1h2zm25.999 0v-1h2.001v1zm-1.999 0h-2v-1h2zm-28-1v1c-.739 0-1.424.215-2.019.566l-.734-.734c.79-.524 1.735-.832 2.753-.832zm-2.753 9.166.734-.734c.595.351 1.279.566 2.019.566v1h-.001c-1.017.001-1.962-.308-2.752-.832zm36.753-.167c.74 0 1.424-.215 2.019-.566l.734.734c-.79.524-1.735.833-2.753.833zm2.752-8.167-.734.734c-.594-.351-1.279-.566-2.018-.566v-1c1.017 0 1.962.308 2.752.832zm-7.752-21.833c0-1.654 1.346-3 3-3h1v1h-1c-1.103 0-2 .897-2 2v1h-1zm-1 3.001h6v2h-6zm-6.001-11v19h-19.999v-1h13c1.654 0 3-1.346 3-3v-12c0-1.654-1.345-3-2.999-3h-8.105c1.232-.635 2.625-1 4.105-1h10c.55 0 .998.448.998 1zm-11.858-11.312.751 3.004-1.06 1.06c-.565-.569-1.217-1.063-1.963-1.436l-4.328-2.164.077-.152h2.382c.378 0 .725-.214.894-.553l.553-1.105zm-20.383-6.574 15.809 4.516-.185.37h-2.382c-.379 0-.725.214-.895.553l-.353.706-11.935-5.969zm-7.758 33.886v-2h1.719l-.5 2zm4.242 3.969 4-1c.445-.111.758-.511.758-.969v-1.882c0-.308.171-.585.447-.723.958-.48 1.553-1.442 1.553-2.514v-.468l.726-.726.274.548v6.936c0 .267-.104.518-.292.707l-4.124 4.124c-.645.644-1.5.998-2.41.998-1.468 0-2.766-.936-3.23-2.329l-1.557-4.671h1.198l1.707 1.707c.249.247.612.348.95.262zm-2.023-7.969h-2.219v-22.838l2.315-6.948c.243-.727.92-1.214 1.685-1.214s1.441.488 1.684 1.213l2.275 6.826zm7.729-23.317-1.237-3.71 16.263 8.132c1.578.789 2.641 2.255 2.934 3.95-2.277.225-4.349 1.151-6.006 2.554l-11.988-10.146.055-.222c.047-.184.04-.378-.021-.558zm12.362 13.317h10.69c.551 0 .999.448.999 1v12c0 .552-.448 1-1 1h-12.999v-8c0-2.307.879-4.406 2.31-6zm-4.31 20c0-.552.448-1 1-1h21v2h-21c-.552-.001-1-.449-1-1zm27 3v2h-20v-2zm12.999-3.001c0 .552-.448 1-1 1h-14.999v-8h12c2.206 0 4 1.794 4 4z"/><path d="m46 39h2v4h-2z"/><path d="m49 39h2v4h-2z"/><path d="m52 39h2v4h-2z"/><path d="m6.5 5c-.827 0-1.5.672-1.5 1.5 0 .827.673 1.5 1.5 1.5s1.5-.673 1.5-1.5c0-.828-.673-1.5-1.5-1.5zm0 1.999c-.276 0-.5-.224-.5-.499 0-.276.224-.5.5-.5.275 0 .5.224.5.5 0 .275-.225.499-.5.499z"/><path d="m27.5 18.999c.827 0 1.5-.673 1.5-1.5s-.673-1.5-1.5-1.5-1.5.673-1.5 1.5.673 1.5 1.5 1.5zm0-1.999c.275 0 .5.224.5.5 0 .275-.224.5-.5.5s-.5-.224-.5-.5.224-.5.5-.5z"/><path d="m51.722 56.999h3.277v-2h-3.278c-.347-.595-.985-1-1.721-1-.737 0-1.375.405-1.722 1h-4.557c-.347-.595-.985-1-1.721-1-.737 0-1.375.405-1.722 1h-4.557c-.347-.595-.985-1-1.721-1-.737 0-1.375.405-1.722 1h-4.557c-.347-.595-.985-1-1.721-1-.737 0-1.375.405-1.722 1h-3.278v2h3.279c.347.595.985 1 1.722 1s1.375-.405 1.722-1h4.556c.347.595.985 1 1.722 1s1.375-.405 1.722-1h4.556c.347.595.985 1 1.722 1s1.375-.405 1.722-1h4.556c.347.595.985 1 1.722 1 .736 0 1.374-.405 1.721-1z"/></g></g></svg>