<?xml version="1.0" encoding="iso-8859-1"?>
<!-- Generator: Adobe Illustrator 16.0.0, SVG Export Plug-In . SVG Version: 6.00 Build 0)  -->
<!DOCTYPE svg PUBLIC "-//W3C//DTD SVG 1.1//EN" "http://www.w3.org/Graphics/SVG/1.1/DTD/svg11.dtd">
<svg version="1.1" id="Capa_1" xmlns="http://www.w3.org/2000/svg" xmlns:xlink="http://www.w3.org/1999/xlink" x="0px" y="0px"
	 width="476.257px" height="476.257px" viewBox="0 0 476.257 476.257" style="enable-background:new 0 0 476.257 476.257;"
	 xml:space="preserve">
<g>
	<g>
		<path d="M295.772,127.867c0.229,0.196,0.649,0.966,1.768,2.078l51.291,51.281c0.994,0.996,1.716,1.437,2.124,1.633
			c0.16-0.423,0.353-1.242,0.353-2.653v-43.673c0-5.001-4.071-9.061-9.072-9.061H298.57
			C296.983,127.456,296.162,127.71,295.772,127.867z"/>
		<path d="M127.123,462.863c2.394,7.73,9.525,13.394,18.043,13.394h15.11c8.406,0,15.455-5.511,17.947-13.085h121.702
			c2.492,7.574,9.537,13.085,17.949,13.085h15.107c8.597,0,15.773-5.755,18.102-13.59c19.288-2.484,34.24-18.782,34.24-38.748V39.25
			C385.323,17.578,367.75,0,346.07,0H130.184c-21.676,0-39.25,17.578-39.25,39.25v384.668
			C90.934,444.55,106.903,461.269,127.123,462.863z M359.158,136.527v43.671c0,7.858-4.212,10.646-7.814,10.646
			c-2.661,0-5.382-1.371-8.062-4.076l-51.304-51.272c-4.925-4.93-4.323-8.863-3.526-10.776c0.798-1.907,3.142-5.113,10.111-5.113
			h43.673C351.568,119.605,359.158,127.199,359.158,136.527z M174.344,88.315v-1.962V29.438v-1.964v-1.961h127.568v1.961v1.964
			v56.915v1.962v1.964H174.344V88.315z M117.098,136.527c0-9.328,7.59-16.914,16.916-16.914h43.673
			c6.965,0,9.326,3.206,10.111,5.114c0.802,1.905,1.393,5.847-3.53,10.776l-51.287,51.281c-2.699,2.701-5.408,4.073-8.069,4.073
			c-3.603,0-7.812-2.787-7.812-10.644V136.527z M238.128,164.976c72.985,0,132.143,59.166,132.143,132.141
			c0,72.983-59.157,132.153-132.143,132.153c-72.985,0-132.146-59.17-132.146-132.153S165.143,164.976,238.128,164.976z"/>
		<polygon points="297.74,29.438 178.51,29.438 207.708,43.176 207.708,72.614 178.51,86.354 297.74,86.354 268.547,72.614 
			268.547,43.176 		"/>
		<path d="M127.429,181.226l51.287-51.281c1.116-1.112,1.531-1.881,1.679-2.258c-0.186,0.024-1.146-0.223-2.709-0.223h-43.673
			c-4.997,0-9.065,4.067-9.065,9.063v43.671c0,1.411,0.196,2.226,0.353,2.653C125.72,182.662,126.431,182.222,127.429,181.226z"/>
		<path d="M238.128,413.568c64.213,0,116.446-52.237,116.446-116.452c0-64.205-52.233-116.439-116.446-116.439
			c-64.211,0-116.445,52.234-116.445,116.439C121.683,361.331,173.917,413.568,238.128,413.568z M238.128,191.659
			c58.158,0,105.474,47.302,105.474,105.457c0,58.16-47.315,105.468-105.474,105.468c-58.158,0-105.471-47.315-105.471-105.468
			C132.657,238.961,179.97,191.659,238.128,191.659z"/>
		<path d="M238.128,394.733c53.818,0,97.623-43.789,97.623-97.617c0-53.823-43.789-97.615-97.623-97.615
			c-53.83,0-97.621,43.792-97.621,97.615C140.507,350.944,184.307,394.733,238.128,394.733z M238.128,255.114
			c23.161,0,42.012,18.835,42.012,42.002s-18.843,42.014-42.012,42.014s-42.008-18.847-42.008-42.014
			S214.967,255.114,238.128,255.114z"/>
		<path d="M238.128,323.429c14.505,0,26.311-11.806,26.311-26.312c0-14.503-11.806-26.301-26.311-26.301
			c-14.509,0-26.307,11.798-26.307,26.301C211.821,311.623,223.619,323.429,238.128,323.429z"/>
	</g>
</g>
<g>
</g>
<g>
</g>
<g>
</g>
<g>
</g>
<g>
</g>
<g>
</g>
<g>
</g>
<g>
</g>
<g>
</g>
<g>
</g>
<g>
</g>
<g>
</g>
<g>
</g>
<g>
</g>
<g>
</g>
</svg>
